
<svg xmlns="http://www.w3.org/2000/svg" 
version="1.1" 
xmlns:xlink="http://www.w3.org/1999/xlink" xmlns:svgjs="http://svgjs.dev/svgjs" 
 width="200"
   height="200" viewBox="0 0 1500 1500"><g transform="matrix(1,0,0,1,-0.3236151603499593,-0.3236151603499593)"><svg viewBox="0 0 343 343" data-background-color="#ffffff" preserveAspectRatio="xMidYMid meet" height="1500" width="1500" xmlns="http://www.w3.org/2000/svg" xmlns:xlink="http://www.w3.org/1999/xlink"><g id="tight-bounds" transform="matrix(1,0,0,1,0.07400000000001228,0.07400000000001228)"><svg viewBox="0 0 342.8515585177538 342.8515585177538" height="342.8515585177538" width="342.8515585177538"><g><svg></svg></g><g><svg viewBox="0 0 342.8515585177538 342.8515585177538" height="342.8515585177538" width="342.8515585177538"><g><path d="M0 171.426c0-94.676 76.75-171.426 171.426-171.426 94.676 0 171.426 76.75 171.426 171.426 0 94.676-76.75 171.426-171.426 171.426-94.676 0-171.426-76.75-171.426-171.426zM171.426 330.049c87.605 0 158.623-71.018 158.623-158.623 0-87.605-71.018-158.623-158.623-158.623-87.605 0-158.623 71.018-158.623 158.623 0 87.605 71.018 158.623 158.623 158.623z" data-fill-palette-color="tertiary" fill="#ff4136" stroke="transparent"></path><ellipse rx="164.56874808852183" ry="164.56874808852183" cx="171.4257792588769" cy="171.4257792588769" fill="#ff4136" stroke="transparent" stroke-width="0" fill-opacity="1" data-fill-palette-color="tertiary"></ellipse></g><g transform="matrix(1,0,0,1,64.84655864529836,100.44076400288661)"><svg viewBox="0 0 213.15844122715708 141.97003051198058" height="141.97003051198058" width="213.15844122715708"><g><svg viewBox="0 0 213.15844122715708 141.97003051198058" height="141.97003051198058" width="213.15844122715708"><g><svg viewBox="0 0 213.15844122715714 141.9700305119806" height="141.97003051198058" width="213.15844122715708"><g><svg viewBox="0 0 213.15844122715714 141.9700305119806" height="141.9700305119806" width="213.15844122715714"><g id="textblocktransform"><svg viewBox="0 0 213.15844122715714 141.9700305119806" height="141.9700305119806" width="213.15844122715714" id="textblock"><g><svg viewBox="0 0 213.15844122715714 141.9700305119806" height="141.9700305119806" width="213.15844122715714"><g transform="matrix(1,0,0,1,0,0)"><svg width="213.15844122715714" viewBox="4.2 -34.9 52.4 34.9" height="141.9700305119806" data-palette-color="#ffffff"><path d="M25.8 0L4.2 0 4.2-3.35 12.9-3.35 12.9-31.55 4.2-31.55 4.2-34.9 25.8-34.9 25.8-31.55 17.1-31.55 17.1-3.35 25.8-3.35 25.8 0ZM52.75 0L52.75-17.5 52.75-28.55 52.35-28.55 45-10.6 37.65-28.55 37.25-28.55 37.25-17.5 37.25 0 33.4 0 33.4-34.9 38.8-34.9 44.95-19.5 45.25-19.5 51.4-34.9 56.6-34.9 56.6 0 52.75 0Z" opacity="1" transform="matrix(1,0,0,1,0,0)" fill="#ffffff" class="wordmark-text-0" data-fill-palette-color="quaternary" id="text-0"></path></svg></g></svg></g></svg></g></svg></g><g></g></svg></g></svg></g></svg></g></svg></g><defs></defs></svg><rect width="342.8515585177538" height="342.8515585177538" fill="none" stroke="none" visibility="hidden"></rect></g></svg></g></svg>