<svg xmlns="http://www.w3.org/2000/svg" version="1.1" xmlns:xlink="http://www.w3.org/1999/xlink" xmlns:svgjs="http://svgjs.dev/svgjs" width="1500" height="935" viewBox="0 0 1500 935"><g transform="matrix(1,0,0,1,-0.9090909090909918,0.3785425101214628)"><svg viewBox="0 0 396 247" data-background-color="#ffffff" preserveAspectRatio="xMidYMid meet" height="935" width="1500" xmlns="http://www.w3.org/2000/svg" xmlns:xlink="http://www.w3.org/1999/xlink"><g id="tight-bounds" transform="matrix(1,0,0,1,0.2400000000000091,-0.09999999999999432)"><svg viewBox="0 0 395.52 247.2" height="247.2" width="395.52"><g><svg></svg></g><g><svg viewBox="0 0 395.52 247.2" height="247.2" width="395.52"><mask id="d25a7590-f1da-42f7-8cc0-ffee716de8f5"><rect width="640" height="400" fill="white"></rect><g transform="matrix(1,0,0,1,114.65526315789474,37.08)"><svg viewBox="0 0 166.2094736842105 173.04" height="173.04" width="166.2094736842105"><g><svg viewBox="0 0 166.2094736842105 173.04" height="173.04" width="166.2094736842105"><g><svg viewBox="0 0 166.2094736842105 173.04" height="173.04" width="166.2094736842105"><g><svg viewBox="0 0 166.2094736842105 173.04" height="173.04" width="166.2094736842105"><g id="SvgjsG2774"><svg viewBox="0 0 166.2094736842105 173.04" height="173.04" width="166.2094736842105" id="SvgjsSvg2773"><g><svg viewBox="0 0 166.2094736842105 173.04" height="173.04" width="166.2094736842105"><g transform="matrix(1,0,0,1,0,0)"><svg width="166.2094736842105" viewBox="-2 -38.8 41.15 42.8" height="173.04" data-palette-color="#e3f1f1"><path d="M7.9 0L2.25 0Q2 0 2-0.25L2-0.25 2.05-34.6Q2.05-34.8 2.25-34.8L2.25-34.8 7.85-34.8Q8.05-34.8 8.05-34.6L8.05-34.6 8.1-0.25Q8.1 0 7.9 0L7.9 0ZM18.35 0L12.7 0Q12.5 0 12.5-0.25L12.5-0.25 12.6-34.6Q12.6-34.8 12.8-34.8L12.8-34.8 18.9-34.8Q19.1-34.8 19.25-34.6L19.25-34.6 23.8-28 28.35-34.6Q28.5-34.8 28.7-34.8L28.7-34.8 34.85-34.8Q35.05-34.8 35.05-34.6L35.05-34.6 35.15-0.25Q35.15 0 34.95 0L34.95 0 29.3 0Q29.1 0 29.1-0.25L29.1-0.25 29.05-25.75 23.8-18.15 18.6-25.75 18.55-0.25Q18.55 0 18.35 0L18.35 0Z" opacity="1" transform="matrix(1,0,0,1,0,0)" fill="black" class="wordmark-text-0" id="SvgjsPath2772" stroke-width="7" stroke="black" stroke-linejoin="round"></path></svg></g></svg></g></svg></g></svg></g><g></g></svg></g></svg></g></svg></g></mask><g transform="matrix(1,0,0,1,114.65526315789474,37.08)"><svg viewBox="0 0 166.2094736842105 173.04" height="173.04" width="166.2094736842105"><g><svg viewBox="0 0 166.2094736842105 173.04" height="173.04" width="166.2094736842105"><g><svg viewBox="0 0 166.2094736842105 173.04" height="173.04" width="166.2094736842105"><g><svg viewBox="0 0 166.2094736842105 173.04" height="173.04" width="166.2094736842105"><g id="textblocktransform"><svg viewBox="0 0 166.2094736842105 173.04" height="173.04" width="166.2094736842105" id="textblock"><g><svg viewBox="0 0 166.2094736842105 173.04" height="173.04" width="166.2094736842105"><g transform="matrix(1,0,0,1,0,0)"><svg width="166.2094736842105" viewBox="-2 -38.8 41.15 42.8" height="173.04" data-palette-color="#e3f1f1"><path d="M7.9 0L2.25 0Q2 0 2-0.25L2-0.25 2.05-34.6Q2.05-34.8 2.25-34.8L2.25-34.8 7.85-34.8Q8.05-34.8 8.05-34.6L8.05-34.6 8.1-0.25Q8.1 0 7.9 0L7.9 0ZM18.35 0L12.7 0Q12.5 0 12.5-0.25L12.5-0.25 12.6-34.6Q12.6-34.8 12.8-34.8L12.8-34.8 18.9-34.8Q19.1-34.8 19.25-34.6L19.25-34.6 23.8-28 28.35-34.6Q28.5-34.8 28.7-34.8L28.7-34.8 34.85-34.8Q35.05-34.8 35.05-34.6L35.05-34.6 35.15-0.25Q35.15 0 34.95 0L34.95 0 29.3 0Q29.1 0 29.1-0.25L29.1-0.25 29.05-25.75 23.8-18.15 18.6-25.75 18.55-0.25Q18.55 0 18.35 0L18.35 0Z" opacity="1" transform="matrix(1,0,0,1,0,0)" fill="#e3f1f1" class="wordmark-text-0" data-fill-palette-color="primary" id="text-0"></path></svg></g></svg></g></svg></g></svg></g><g></g></svg></g></svg></g></svg></g><g mask="url(#d25a7590-f1da-42f7-8cc0-ffee716de8f5)"><g transform="matrix(3.2995572779998112, 0, 0, 3.2995572779998112, 37.1392014856082, 1)"><svg xmlns="http://www.w3.org/2000/svg" xmlns:xlink="http://www.w3.org/1999/xlink" version="1.1" x="0" y="0" viewBox="1.32 12.844 97.359 74.313" enable-background="new 0 0 100 100" xml:space="preserve" height="74.313" width="97.359" class="icon-none" data-fill-palette-color="accent" id="none"><path fill="#ffc604" d="M49.951 87.075c0.212-0.248 0.117-0.575-0.033-0.841C50.075 86.505 50.178 86.833 49.951 87.075z" data-fill-palette-color="accent"></path><path fill="#ffc604" d="M64.521 86.734c-0.15 0.17-0.451 0.289-0.98 0.33-0.09 0.01-0.221 0.01-0.38 0.021-0.41 0.011-1.04 0.021-1.841 0.04-0.439 0-0.92 0-1.449 0.011-0.811 0-1.92 0-3.229 0.01-1.933 0.011-4.07 0.011-6.19 0.011-3.66 0-7.23-0.011-9.46-0.021-0.62 0-1.13-0.011-1.52-0.011-1.29-0.012-2.27-0.029-2.77-0.051-0.07 0-0.15 0-0.23-0.01-0.09-0.011-0.17-0.021-0.24-0.031-1.73-0.238-0.36-1.618-0.36-1.618s2.1-1.642 3.14-3.279c0 0 0.31-0.011 0.6-2.54 0.4-3.58 0.75-6.359 0.75-6.359h19.291c0 0 0.341 2.779 0.75 6.359 0.279 2.529 0.591 2.54 0.591 2.54 0.979 1.54 2.88 3.08 3.118 3.271 0.012 0 0.021 0.011 0.021 0.011s0.07 0.069 0.16 0.188C64.51 85.873 64.819 86.384 64.521 86.734z" data-fill-palette-color="accent"></path><path fill="#ffc604" d="M49.901 85.83c0.064 0.078 0.135 0.179 0.197 0.289C50.036 86.011 49.965 85.91 49.901 85.83z" data-fill-palette-color="accent"></path><path fill="#ffc604" d="M50.129 71.937c-3.169 0.013-44.547 0.144-46.563 0C1.471 71.79 1.32 69.691 1.32 69.691V14.744c0-1.797 2.245-1.9 2.245-1.9h46.116 0.639 46.113c0 0 2.246 0.103 2.246 1.9v54.948c0 0-0.15 2.099-2.246 2.245C94.463 72.078 54.797 71.951 50.129 71.937M94.898 16.541H5.213v50.756h89.686V16.541L94.898 16.541z" data-fill-palette-color="accent"></path></svg></g></g></svg></g><defs></defs></svg><rect width="395.52" height="247.2" fill="none" stroke="none" visibility="hidden"></rect></g></svg></g></svg>